<svg xmlns="http://www.w3.org/2000/svg" viewBox="0 0 200 200" width="200" height="200">
  <!-- Head -->
  <circle cx="100" cy="100" r="85" fill="white" stroke="black" stroke-width="4"/>
  
  <!-- Left ear -->
  <circle cx="45" cy="35" r="25" fill="white" stroke="black" stroke-width="4"/>
  
  <!-- Right ear with bow -->
  <circle cx="155" cy="35" r="25" fill="white" stroke="black" stroke-width="4"/>
  
  <!-- Red bow (right side) -->
  <ellipse cx="165" cy="25" rx="22" ry="28" fill="#FF1744" stroke="black" stroke-width="3"/>
  <circle cx="155" cy="25" r="12" fill="#FF1744" stroke="black" stroke-width="3"/>
  <circle cx="175" cy="25" r="12" fill="#FF1744" stroke="black" stroke-width="3"/>
  
  <!-- Left eye -->
  <circle cx="75" cy="90" r="6" fill="black"/>
  
  <!-- Right eye -->
  <circle cx="125" cy="90" r="6" fill="black"/>
  
  <!-- Nose (yellow oval) -->
  <ellipse cx="100" cy="110" rx="6" ry="8" fill="#FFD700" stroke="black" stroke-width="2"/>
  
  <!-- Mouth -->
  <path d="M 100 110 Q 95 125 85 125" stroke="black" stroke-width="2" fill="none" stroke-linecap="round"/>
  <path d="M 100 110 Q 105 125 115 125" stroke="black" stroke-width="2" fill="none" stroke-linecap="round"/>
  
  <!-- Left whiskers -->
  <line x1="50" y1="105" x2="20" y2="100" stroke="black" stroke-width="2" stroke-linecap="round"/>
  <line x1="50" y1="115" x2="20" y2="125" stroke="black" stroke-width="2" stroke-linecap="round"/>
  <line x1="50" y1="95" x2="20" y2="75" stroke="black" stroke-width="2" stroke-linecap="round"/>
  
  <!-- Right whiskers -->
  <line x1="150" y1="105" x2="180" y2="100" stroke="black" stroke-width="2" stroke-linecap="round"/>
  <line x1="150" y1="115" x2="180" y2="125" stroke="black" stroke-width="2" stroke-linecap="round"/>
  <line x1="150" y1="95" x2="180" y2="75" stroke="black" stroke-width="2" stroke-linecap="round"/>
</svg>